<?xml version="1.0" encoding="UTF-8" standalone="no"?>
<svg
   xmlns:dc="http://purl.org/dc/elements/1.1/"
   xmlns:cc="http://creativecommons.org/ns#"
   xmlns:rdf="http://www.w3.org/1999/02/22-rdf-syntax-ns#"
   xmlns:svg="http://www.w3.org/2000/svg"
   xmlns="http://www.w3.org/2000/svg"
   xmlns:sodipodi="http://sodipodi.sourceforge.net/DTD/sodipodi-0.dtd"
   xmlns:inkscape="http://www.inkscape.org/namespaces/inkscape"
   inkscape:version="1.0alpha2 (863a58d, 2019-08-17)"
   sodipodi:docname="silver copy.svg"
   xml:space="preserve"
   style="enable-background:new 0 0 300.439 300.439;"
   viewBox="0 0 300.439 300.439"
   y="0px"
   x="0px"
   id="Layer_1"
   version="1.1"><metadata
   id="metadata55">
  <rdf:RDF>
    <cc:Work
       rdf:about="">
      <dc:format>image/svg+xml</dc:format>
      <dc:type
         rdf:resource="http://purl.org/dc/dcmitype/StillImage" />
    </cc:Work>
  </rdf:RDF>
</metadata>
<defs
   id="defs53" />
<sodipodi:namedview
   inkscape:current-layer="Layer_1"
   inkscape:window-maximized="0"
   inkscape:window-y="23"
   inkscape:window-x="0"
   inkscape:cy="560"
   inkscape:cx="400"
   inkscape:zoom="0.35"
   showgrid="false"
   id="namedview51"
   inkscape:window-height="907"
   inkscape:window-width="1801"
   inkscape:pageshadow="2"
   inkscape:pageopacity="0"
   guidetolerance="10"
   gridtolerance="10"
   objecttolerance="10"
   borderopacity="1"
   inkscape:document-rotation="0"
   bordercolor="#666666"
   pagecolor="#ffffff" />

<g
   id="g18">
	<path
   id="path10"
   d="M276.967,0h-84.498L70.415,178.385h84.498L276.967,0z"
   style="fill:#BF392C;" />

	<path
   id="path12"
   d="M23.472,0h84.498l122.053,178.385h-84.498L23.472,0z"
   style="fill:#E2574C;" />

	<path
   id="path14"
   d="M154.914,93.887c57.271,0,103.276,46.005,103.276,103.276s-46.005,103.276-103.276,103.276   S51.638,254.434,51.638,197.163S97.643,93.887,154.914,93.887z"
   style="fill:#E4E7E7;" />

	<path
   id="path16"
   d="M154.914,122.053c-41.31,0-75.11,33.799-75.11,75.11s33.799,75.11,75.11,75.11   s75.11-33.799,75.11-75.11S196.224,122.053,154.914,122.053z M154.914,253.495c-30.983,0-56.332-25.35-56.332-56.332   s25.35-56.332,56.332-56.332s56.332,25.35,56.332,56.332S185.896,253.495,154.914,253.495z"
   style="fill:#CDCFCF;" />

</g>

<g
   id="g20">
</g>

<g
   id="g22">
</g>

<g
   id="g24">
</g>

<g
   id="g26">
</g>

<g
   id="g28">
</g>

<g
   id="g30">
</g>

<g
   id="g32">
</g>

<g
   id="g34">
</g>

<g
   id="g36">
</g>

<g
   id="g38">
</g>

<g
   id="g40">
</g>

<g
   id="g42">
</g>

<g
   id="g44">
</g>

<g
   id="g46">
</g>

<g
   id="g48">
</g>

<path
   inkscape:connector-curvature="0"
   id="path57"
   d="m 130.57143,246.09944 c -21.73095,-11.48207 -31.176205,-28.47644 -29.40859,-52.9134 1.33317,-18.43096 6.08934,-26.69991 23.43009,-40.73494 9.64912,-7.80969 12.83524,-8.73681 30.02447,-8.73681 15.63537,0 21.1081,1.28699 29.27816,6.88521 28.54695,19.56068 33.79657,58.53815 11.33133,84.1331 -13.28859,15.13987 -46.47311,20.97392 -64.65546,11.36684 z"
   style="fill:#d38d5f;stroke-width:2.85714" />
<path
   inkscape:connector-curvature="0"
   id="path59"
   d="M 128.941,295.70328 C 98.188734,286.98424 71.448411,263.03645 60.19279,234.13455 52.573158,214.56906 51.876747,181.42295 58.697571,162.96862 73.802745,122.10025 110.7748,96.571429 154.85714,96.571429 c 48.8249,0 87.16976,30.245871 98.97073,78.066691 14.75838,59.80506 -29.87122,119.44233 -92.4266,123.50706 -11.26085,0.73171 -24.88059,-0.29287 -32.46027,-2.4419 z m 58.98574,-29.94001 c 28.06441,-14.31739 46.88351,-48.36972 42.73392,-77.32509 -5.67035,-39.567 -36.15752,-66.13618 -75.80352,-66.06181 -30.53085,0.0573 -54.13871,14.34206 -67.752057,40.9958 -14.679642,28.74146 -8.814892,64.21556 14.379867,86.97949 23.46918,23.03326 59.06299,29.37924 86.44179,15.41161 z"
   style="fill:#d38d5f;stroke-width:2.85714" />
<path
   inkscape:connector-curvature="0"
   id="path61"
   d="M 134.83865,268.35893 C 94.058215,254.97844 71.799478,213.46218 84.916552,175.24588 c 6.647818,-19.36826 16.860568,-31.89477 34.034768,-41.74554 11.94783,-6.85303 17.7723,-8.30854 33.33661,-8.33067 23.0045,-0.0327 34.76881,3.68647 49.73079,15.7219 17.34016,13.94844 25.71338,32.69727 25.5046,57.10843 -0.24473,28.61612 -14.55445,52.13059 -39.45449,64.83364 -12.58604,6.42092 -41.38863,9.41063 -53.23018,5.52529 z m 45.13232,-20.08088 c 39.46745,-20.24009 43.02361,-73.16936 6.63788,-98.79724 -10.23783,-7.21091 -14.81124,-8.52722 -29.78065,-8.57143 -22.0395,-0.0651 -37.31152,7.31206 -48.79973,23.57274 -20.093297,28.44051 -9.6599,67.54562 22.54296,84.4926 12.00808,6.31934 36.38904,5.9755 49.39954,-0.69667 z"
   style="fill:#c87137;stroke-width:2.85714" />
<path
   inkscape:connector-curvature="0"
   id="path63"
   d="m 127.49223,263.94734 c -25.46777,-11.08955 -43.986907,-39.58752 -44.035747,-67.76393 -0.05604,-32.32852 25.447967,-63.03428 56.230637,-67.69937 34.02873,-5.15702 60.23724,5.88288 76.531,32.23741 7.64972,12.37313 8.63144,16.45287 8.5728,35.62592 -0.0511,16.69136 -1.50145,24.36458 -6.33003,33.4885 -7.90324,14.9337 -25.97384,30.5434 -40.34216,34.84825 -14.65888,4.39191 -39.6846,4.02771 -50.6265,-0.73678 z m 60.84792,-19.36271 c 16.80964,-11.1241 24.63754,-28.82766 23.1407,-52.335 -0.96327,-15.1279 -2.6677,-20.17735 -9.77488,-28.9585 -13.57815,-16.77625 -22.16405,-21.8123 -39.66141,-23.26331 -20.67634,-1.71465 -37.99121,4.8541 -51.13004,19.39722 -11.162457,12.35551 -14.566569,24.77867 -12.547495,45.79157 1.626616,16.92852 10.541795,30.89078 26.373445,41.30404 10.26185,6.74973 13.79714,7.48863 31.80296,6.64701 16.17247,-0.75593 22.58471,-2.48681 31.79672,-8.58303 z"
   style="fill:#c87137;stroke-width:2.85714" />
<path
   inkscape:connector-curvature="0"
   id="path65"
   d="M 127.49223,263.94734 C 92.376521,248.65675 73.570136,202.75873 88.763831,169.42857 101.8271,140.7719 123.18366,127.20093 154.74986,127.49795 c 30.22251,0.28438 51.13432,12.05021 63.73777,35.86145 8.81874,16.66093 8.80542,49.78753 -0.0268,66.47647 -7.81081,14.75925 -27.12567,31.57047 -40.55977,35.30242 -14.2705,3.9643 -39.96352,3.35728 -50.40878,-1.19095 z m 51.02811,-14.17808 c 5.05667,-2.16976 13.29366,-8.27691 18.30442,-13.57143 23.89384,-25.24696 20.07264,-63.3669 -8.67066,-86.49765 -9.9882,-8.03785 -12.84986,-8.84304 -31.42857,-8.84304 -23.7081,0 -34.67431,5.04496 -48.70832,22.40806 -8.233916,10.18713 -8.874353,12.59075 -8.874353,33.30623 0,20.68498 0.649789,23.1341 8.836643,33.30622 14.55721,18.08726 25.29895,23.83664 44.53479,23.83664 9.24666,0 20.94938,-1.77526 26.00605,-3.94503 z"
   style="fill:#c87137;stroke-width:2.85714" />
<path
   inkscape:connector-curvature="0"
   id="path67"
   d="M 127.49223,263.94734 C 92.376521,248.65675 73.570136,202.75873 88.763831,169.42857 101.8271,140.7719 123.18366,127.20093 154.74986,127.49795 c 30.22251,0.28438 51.13432,12.05021 63.73777,35.86145 8.81874,16.66093 8.80542,49.78753 -0.0268,66.47647 -7.81081,14.75925 -27.12567,31.57047 -40.55977,35.30242 -14.2705,3.9643 -39.96352,3.35728 -50.40878,-1.19095 z m 60.77529,-20.58896 c 23.56214,-18.9764 30.27105,-47.06392 17.30391,-72.44451 -12.93983,-25.32711 -38.80952,-36.46865 -67.01295,-28.86108 -41.169799,11.1051 -54.453937,63.43392 -24.26406,95.58088 11.81361,12.57942 22.40065,16.26844 43.9731,15.32227 16.3923,-0.71898 20.67843,-2.09019 30,-9.59756 z"
   style="fill:#c87137;stroke-width:2.85714" />
<path
   inkscape:connector-curvature="0"
   id="path69"
   d=""
   style="fill:#c87137;stroke-width:2.85714" />
</svg>
