<?xml version="1.0" encoding="UTF-8" standalone="no"?>
<svg
   xmlns:dc="http://purl.org/dc/elements/1.1/"
   xmlns:cc="http://creativecommons.org/ns#"
   xmlns:rdf="http://www.w3.org/1999/02/22-rdf-syntax-ns#"
   xmlns:svg="http://www.w3.org/2000/svg"
   xmlns="http://www.w3.org/2000/svg"
   xmlns:sodipodi="http://sodipodi.sourceforge.net/DTD/sodipodi-0.dtd"
   xmlns:inkscape="http://www.inkscape.org/namespaces/inkscape"
   inkscape:version="1.0alpha2 (863a58d, 2019-08-17)"
   sodipodi:docname="silver.svg"
   xml:space="preserve"
   style="enable-background:new 0 0 300.439 300.439;"
   viewBox="0 0 300.439 300.439"
   y="0px"
   x="0px"
   id="Layer_1"
   version="1.1"><metadata
   id="metadata55">
  <rdf:RDF>
    <cc:Work
       rdf:about="">
      <dc:format>image/svg+xml</dc:format>
      <dc:type
         rdf:resource="http://purl.org/dc/dcmitype/StillImage" />
    </cc:Work>
  </rdf:RDF>
</metadata>
<defs
   id="defs53" />
<sodipodi:namedview
   inkscape:current-layer="Layer_1"
   inkscape:window-maximized="0"
   inkscape:window-y="23"
   inkscape:window-x="0"
   inkscape:cy="560"
   inkscape:cx="400"
   inkscape:zoom="0.35"
   showgrid="false"
   id="namedview51"
   inkscape:window-height="907"
   inkscape:window-width="1801"
   inkscape:pageshadow="2"
   inkscape:pageopacity="0"
   guidetolerance="10"
   gridtolerance="10"
   objecttolerance="10"
   borderopacity="1"
   inkscape:document-rotation="0"
   bordercolor="#666666"
   pagecolor="#ffffff" />

<g
   id="g18">
	<path
   id="path10"
   d="M276.967,0h-84.498L70.415,178.385h84.498L276.967,0z"
   style="fill:#BF392C;" />

	<path
   id="path12"
   d="M23.472,0h84.498l122.053,178.385h-84.498L23.472,0z"
   style="fill:#E2574C;" />

	<path
   id="path14"
   d="M154.914,93.887c57.271,0,103.276,46.005,103.276,103.276s-46.005,103.276-103.276,103.276   S51.638,254.434,51.638,197.163S97.643,93.887,154.914,93.887z"
   style="fill:#E4E7E7;" />

	<path
   id="path16"
   d="M154.914,122.053c-41.31,0-75.11,33.799-75.11,75.11s33.799,75.11,75.11,75.11   s75.11-33.799,75.11-75.11S196.224,122.053,154.914,122.053z M154.914,253.495c-30.983,0-56.332-25.35-56.332-56.332   s25.35-56.332,56.332-56.332s56.332,25.35,56.332,56.332S185.896,253.495,154.914,253.495z"
   style="fill:#CDCFCF;" />

</g>

<g
   id="g20">
</g>

<g
   id="g22">
</g>

<g
   id="g24">
</g>

<g
   id="g26">
</g>

<g
   id="g28">
</g>

<g
   id="g30">
</g>

<g
   id="g32">
</g>

<g
   id="g34">
</g>

<g
   id="g36">
</g>

<g
   id="g38">
</g>

<g
   id="g40">
</g>

<g
   id="g42">
</g>

<g
   id="g44">
</g>

<g
   id="g46">
</g>

<g
   id="g48">
</g>

<path
   inkscape:connector-curvature="0"
   id="path61"
   d="m 130.57143,246.09944 c -21.73095,-11.48207 -31.176205,-28.47644 -29.40859,-52.9134 1.33317,-18.43096 6.08934,-26.69991 23.43009,-40.73494 9.64912,-7.80969 12.83524,-8.73681 30.02447,-8.73681 15.63537,0 21.1081,1.28699 29.27816,6.88521 28.54695,19.56068 33.79657,58.53815 11.33133,84.1331 -13.28859,15.13987 -46.47311,20.97392 -64.65546,11.36684 z"
   style="fill:#ffdd55;stroke-width:2.85714" />
<path
   inkscape:connector-curvature="0"
   id="path63"
   d="M 128.941,295.70328 C 98.188734,286.98424 71.448411,263.03645 60.19279,234.13455 52.573158,214.56906 51.876747,181.42295 58.697571,162.96862 73.802745,122.10025 110.7748,96.571429 154.85714,96.571429 c 48.8249,0 87.16976,30.245871 98.97073,78.066691 14.75838,59.80506 -29.87122,119.44233 -92.4266,123.50706 -11.26085,0.73171 -24.88059,-0.29287 -32.46027,-2.4419 z m 58.98574,-29.94001 c 28.06441,-14.31739 46.88351,-48.36972 42.73392,-77.32509 -5.67035,-39.567 -36.15752,-66.13618 -75.80352,-66.06181 -30.53085,0.0573 -54.13871,14.34206 -67.752057,40.9958 -14.679642,28.74146 -8.814892,64.21556 14.379867,86.97949 23.46918,23.03326 59.06299,29.37924 86.44179,15.41161 z"
   style="fill:#ffdd55;stroke-width:2.85714" />
<path
   inkscape:connector-curvature="0"
   id="path65"
   d="m 126.06194,241.50344 c -16,-10.7824 -22.63337,-23.29255 -22.63337,-42.68523 0,-18.43185 2.49719,-25.15926 13.92053,-37.50186 10.92817,-11.80757 21.05321,-16.17349 37.50804,-16.17349 16.45483,0 26.57987,4.36592 37.50804,16.17349 11.34908,12.26236 14.73686,20.67868 14.73686,36.61106 0,21.87641 -11.64931,39.9631 -30.28804,47.02513 -14.56609,5.51894 -40.01032,3.78976 -50.75206,-3.4491 z"
   style="fill:#ffe680;stroke-width:2.85714" />
<path
   inkscape:connector-curvature="0"
   id="path67"
   d=""
   style="fill:#ffd42a;stroke-width:2.85714" />
<path
   inkscape:connector-curvature="0"
   id="path71"
   d="m 134.83865,268.35893 c -20.07123,-6.58558 -37.204515,-21.17606 -46.913257,-39.9507 -16.267239,-31.45736 -1.970319,-75.98714 30.347057,-94.52017 12.95492,-7.42926 18.06082,-8.68636 35.15612,-8.65564 45.20975,0.0812 74.47062,28.81799 74.09475,72.76758 -0.24473,28.61612 -14.55445,52.13059 -39.45449,64.83364 -12.58604,6.42092 -41.38863,9.41063 -53.23018,5.52529 z m 45.13232,-20.08088 c 39.46745,-20.24009 43.02361,-73.16936 6.63788,-98.79724 -10.23783,-7.21091 -14.81124,-8.52722 -29.78065,-8.57143 -22.0395,-0.0651 -37.31152,7.31206 -48.79973,23.57274 -20.093297,28.44051 -9.6599,67.54562 22.54296,84.4926 12.00808,6.31934 36.38904,5.9755 49.39954,-0.69667 z"
   style="fill:#ffd42a;stroke-width:2.85714" />
</svg>
