<?xml version="1.0" encoding="UTF-8" standalone="no"?>
<svg
   xmlns:dc="http://purl.org/dc/elements/1.1/"
   xmlns:cc="http://creativecommons.org/ns#"
   xmlns:rdf="http://www.w3.org/1999/02/22-rdf-syntax-ns#"
   xmlns:svg="http://www.w3.org/2000/svg"
   xmlns="http://www.w3.org/2000/svg"
   xmlns:sodipodi="http://sodipodi.sourceforge.net/DTD/sodipodi-0.dtd"
   xmlns:inkscape="http://www.inkscape.org/namespaces/inkscape"
   inkscape:version="1.0alpha2 (863a58d, 2019-08-17)"
   sodipodi:docname="proffessar.svg"
   xml:space="preserve"
   style="enable-background:new 0 0 300.439 300.439;"
   viewBox="0 0 300.439 300.439"
   y="0px"
   x="0px"
   id="Layer_1"
   version="1.1"><metadata
   id="metadata116">
  <rdf:RDF>
    <cc:Work
   rdf:about="">
      <dc:format>image/svg+xml</dc:format>


      <dc:type
   rdf:resource="http://purl.org/dc/dcmitype/StillImage" />


    </cc:Work>


  </rdf:RDF>


</metadata>


<defs
   id="defs114" />


<sodipodi:namedview
   inkscape:current-layer="g79"
   inkscape:window-maximized="0"
   inkscape:window-y="42"
   inkscape:window-x="217"
   inkscape:cy="150.2195"
   inkscape:cx="150.2195"
   inkscape:zoom="0.90534186"
   showgrid="false"
   id="namedview112"
   inkscape:window-height="1003"
   inkscape:window-width="1143"
   inkscape:pageshadow="2"
   inkscape:pageopacity="0"
   guidetolerance="10"
   gridtolerance="10"
   objecttolerance="10"
   borderopacity="1"
   inkscape:document-rotation="0"
   bordercolor="#666666"
   pagecolor="#ffffff" />



<g
   id="g79">
	<path
   id="path71"
   d="M276.967,0h-84.498L70.415,178.385h84.498L276.967,0z"
   style="fill:#BF392C;" />



	<path
   id="path73"
   d="M23.472,0h84.498l122.053,178.385h-84.498L23.472,0z"
   style="fill:#E2574C;" />



	<path
   id="path75"
   d="M154.914,93.887c57.271,0,103.276,46.005,103.276,103.276s-46.005,103.276-103.276,103.276   S51.638,254.434,51.638,197.163S97.643,93.887,154.914,93.887z"
   style="fill:#E4E7E7;" />



	<path
   id="path77"
   d="M154.914,122.053c-41.31,0-75.11,33.799-75.11,75.11s33.799,75.11,75.11,75.11   s75.11-33.799,75.11-75.11S196.224,122.053,154.914,122.053z M154.914,253.495c-30.983,0-56.332-25.35-56.332-56.332   s25.35-56.332,56.332-56.332s56.332,25.35,56.332,56.332S185.896,253.495,154.914,253.495z"
   style="fill:#CDCFCF;" />



<path
   inkscape:connector-curvature="0"
   id="path138"
   d="m 141.0653,251.19732 c -19.7858,-5.32107 -35.7415,-21.68686 -40.39638,-41.43464 -4.426661,-18.77956 1.2021,-38.22009 15.01303,-51.85177 22.41844,-22.12746 56.91278,-21.86587 78.95338,0.59876 21.5879,22.00323 21.32792,56.01486 -0.59486,77.82262 -14.18806,14.11363 -34.5371,19.82365 -52.97517,14.86503 z"
   style="fill:#55ddff;stroke-width:1.10456" />


<path
   inkscape:connector-curvature="0"
   id="path140"
   d=""
   style="fill:#55ddff;stroke-width:1.10456" />


<path
   inkscape:connector-curvature="0"
   id="path142"
   d="m 144.7695,299.21051 c -44.795958,-4.02099 -80.97083,-36.74997 -90.590886,-81.9615 -2.057526,-9.66979 -2.057526,-30.50205 0,-40.17184 6.575579,-30.90335 25.336937,-56.14551 52.088326,-70.0814 17.29384,-9.009056 29.54003,-12.068829 48.48123,-12.113278 19.79914,-0.04646 36.81425,4.571002 54.12321,14.687648 11.28981,6.59861 28.35232,24.21564 35.09072,36.23114 21.92285,39.09148 16.7496,87.85084 -12.7132,119.82565 -23.28801,25.27354 -52.53319,36.63067 -86.4794,33.58358 z m 24.51686,-28.01774 c 26.02665,-4.90724 48.93509,-25.27127 57.36591,-50.99434 2.81637,-8.59295 3.20565,-11.39028 3.20565,-23.03534 0,-11.64506 -0.38928,-14.44239 -3.20565,-23.03534 -8.67021,-26.45348 -30.64548,-45.83027 -57.91819,-51.0696 -16.51855,-3.17337 -31.06242,-1.06258 -47.57702,6.90498 -17.86091,8.61709 -31.771707,24.95364 -38.410829,45.10886 -2.491971,7.56519 -2.910721,10.74332 -2.910721,22.0911 0,11.34778 0.41875,14.52592 2.910721,22.0911 4.103661,12.458 9.929965,21.84629 19.633399,31.63654 17.32478,17.47978 42.06292,24.98627 66.90673,20.30204 z"
   style="fill:#2ad4ff;stroke-width:1.10456" />


<path
   inkscape:connector-curvature="0"
   id="path144"
   d="m 138.87666,270.09139 c -21.91007,-4.9813 -40.949472,-20.26521 -50.945048,-40.8962 -10.099518,-20.84553 -10.074137,-43.16617 0.07311,-64.29394 19.292098,-40.16844 68.571598,-54.29074 106.723058,-30.58422 14.26843,8.8661 25.84564,23.86534 31.45683,40.75496 2.19836,6.61697 2.55983,9.88208 2.50685,22.64338 -0.0582,14.0111 -0.27558,15.47841 -3.60039,24.30021 -8.43964,22.39307 -26.16244,39.42437 -48.25179,46.36912 -10.02553,3.15195 -28.04289,3.96196 -37.96262,1.70669 z m 28.38055,-17.72336 c 11.18408,-2.63663 18.77156,-6.91524 27.33958,-15.41688 8.37822,-8.3133 12.5094,-15.44453 15.34551,-26.48932 7.68489,-29.92765 -11.78218,-61.21942 -42.60564,-68.48514 -31.66792,-7.46478 -63.44157,14.3949 -68.5339,47.15006 -5.984375,38.49301 30.49144,72.19099 68.45445,63.24128 z"
   style="fill:#00ccff;stroke-width:1.10456" />


<flowRoot
   style="font-style:normal;font-weight:normal;font-size:40px;font-family:'Times New Roman';fill:#000000;fill-opacity:1;stroke:none;-inkscape-font-specification:'Times New Roman, ';font-stretch:normal;font-variant:normal;"
   id="flowRoot146"
   xml:space="preserve"><flowRegion
     style="-inkscape-font-specification:'Times New Roman, ';font-family:'Times New Roman';font-weight:normal;font-style:normal;font-stretch:normal;font-variant:normal;"
     id="flowRegion148"><rect
       style="-inkscape-font-specification:'Times New Roman, ';font-family:'Times New Roman';font-weight:normal;font-style:normal;font-stretch:normal;font-variant:normal;"
       y="156.84683"
       x="133.65117"
       height="91.678078"
       width="49.704979"
       id="rect150" /></flowRegion><flowPara
     id="flowPara152" /></flowRoot>
<path
   inkscape:connector-curvature="0"
   id="path158"
   d="m 147.99625,251.80915 c -3.10606,-0.43831 -8.32508,-1.72936 -11.59783,-2.869 l -5.95046,-2.07208 6.90347,-0.32884 6.90347,-0.32885 v -16.3592 -16.3592 l 11.87397,-0.61386 c 13.26311,-0.68568 17.7124,-1.94896 25.00265,-7.09891 12.44215,-8.78936 15.1677,-28.67581 5.48118,-39.99234 -7.5307,-8.79793 -16.15684,-11.14915 -40.90383,-11.14915 h -15.81319 v 45.90958 45.90959 l -6.6945,-4.69593 c -7.80494,-5.47485 -16.43197,-16.42693 -19.85997,-25.21237 -2.95031,-7.56121 -4.056479,-22.63996 -2.27145,-30.96328 3.88633,-18.12131 18.22141,-34.0437 36.4401,-40.47508 9.63244,-3.40035 23.34325,-3.565 33.57976,-0.40327 25.2381,7.79526 41.98204,33.91397 38.31531,59.76771 -4.14722,29.24177 -32.84819,51.36479 -61.40868,47.33448 z"
   style="fill:#55ddff;stroke-width:1.10456" />





<flowRoot
   style="font-size:40px;font-family:sans-serif;letter-spacing:0px"
   id="flowRoot44"
   xml:space="preserve"><flowRegion
     id="flowRegion46"><rect
       y="154.63773"
       x="129.89568"
       height="98.305405"
       width="57.878693"
       id="rect48" /></flowRegion><flowPara
     id="flowPara50"></flowPara></flowRoot><flowRoot
   style="font-size:40px;font-family:sans-serif;letter-spacing:0px"
   id="flowRoot52"
   xml:space="preserve"><flowRegion
     id="flowRegion54"><rect
       y="178.38499"
       x="145.52499"
       height="73.983032"
       width="21.73221"
       id="rect56" /></flowRegion><flowPara
     id="flowPara58">MMMMMM</flowPara></flowRoot><text
   transform="scale(0.93127034,1.073802)"
   id="text62"
   y="216.47696"
   x="125.79965"
   style="font-size:95.20550000000000068px;font-family:Lora;-inkscape-font-specification:'Lora Normal';letter-spacing:0px;stroke-width:2.38014;fill:#00aad4;"
   xml:space="preserve"><tspan
     style="stroke-width:2.38014;fill:#00aad4;"
     y="216.47696"
     x="125.79965"
     id="tspan60"
     sodipodi:role="line">M</tspan></text>
</g>



<g
   id="g81">
</g>



<g
   id="g83">
</g>



<g
   id="g85">
</g>



<g
   id="g87">
</g>



<g
   id="g89">
</g>



<g
   id="g91">
</g>



<g
   id="g93">
</g>



<g
   id="g95">
</g>



<g
   id="g97">
</g>



<g
   id="g99">
</g>



<g
   id="g101">
</g>



<g
   id="g103">
</g>



<g
   id="g105">
</g>



<g
   id="g107">
</g>



<g
   id="g109">
</g>



</svg>
