<?xml version="1.0" encoding="UTF-8" standalone="no"?>
<svg
   xmlns:dc="http://purl.org/dc/elements/1.1/"
   xmlns:cc="http://creativecommons.org/ns#"
   xmlns:rdf="http://www.w3.org/1999/02/22-rdf-syntax-ns#"
   xmlns:svg="http://www.w3.org/2000/svg"
   xmlns="http://www.w3.org/2000/svg"
   xmlns:sodipodi="http://sodipodi.sourceforge.net/DTD/sodipodi-0.dtd"
   xmlns:inkscape="http://www.inkscape.org/namespaces/inkscape"
   inkscape:version="1.0alpha2 (863a58d, 2019-08-17)"
   sodipodi:docname="proffessar.svg"
   xml:space="preserve"
   style="enable-background:new 0 0 300.439 300.439;"
   viewBox="0 0 300.439 300.439"
   y="0px"
   x="0px"
   id="Layer_1"
   version="1.1"><metadata
   id="metadata116">
  <rdf:RDF>
    <cc:Work
   rdf:about="">
      <dc:format>image/svg+xml</dc:format>


      <dc:type
   rdf:resource="http://purl.org/dc/dcmitype/StillImage" />


    </cc:Work>


  </rdf:RDF>


</metadata>


<defs
   id="defs114" />


<sodipodi:namedview
   inkscape:current-layer="g79"
   inkscape:window-maximized="0"
   inkscape:window-y="42"
   inkscape:window-x="217"
   inkscape:cy="150.2195"
   inkscape:cx="32.584378"
   inkscape:zoom="0.90534186"
   showgrid="false"
   id="namedview112"
   inkscape:window-height="1003"
   inkscape:window-width="1143"
   inkscape:pageshadow="2"
   inkscape:pageopacity="0"
   guidetolerance="10"
   gridtolerance="10"
   objecttolerance="10"
   borderopacity="1"
   inkscape:document-rotation="0"
   bordercolor="#666666"
   pagecolor="#ffffff" />



<g
   id="g79">
	<path
   id="path71"
   d="M276.967,0h-84.498L70.415,178.385h84.498L276.967,0z"
   style="fill:#BF392C;" />



	<path
   id="path73"
   d="M23.472,0h84.498l122.053,178.385h-84.498L23.472,0z"
   style="fill:#E2574C;" />



	<path
   id="path75"
   d="M154.914,93.887c57.271,0,103.276,46.005,103.276,103.276s-46.005,103.276-103.276,103.276   S51.638,254.434,51.638,197.163S97.643,93.887,154.914,93.887z"
   style="fill:#66ff00" />



	<path
   id="path77"
   d="M154.914,122.053c-41.31,0-75.11,33.799-75.11,75.11s33.799,75.11,75.11,75.11   s75.11-33.799,75.11-75.11S196.224,122.053,154.914,122.053z M154.914,253.495c-30.983,0-56.332-25.35-56.332-56.332   s25.35-56.332,56.332-56.332s56.332,25.35,56.332,56.332S185.896,253.495,154.914,253.495z"
   style="fill:#CDCFCF;" />





<path
   inkscape:connector-curvature="0"
   id="path140"
   d=""
   style="fill:#55ddff;stroke-width:1.10456" />


<path
   inkscape:connector-curvature="0"
   id="path142"
   d="m 144.7695,299.21051 c -44.795958,-4.02099 -80.97083,-36.74997 -90.590886,-81.9615 -2.057526,-9.66979 -2.057526,-30.50205 0,-40.17184 6.575579,-30.90335 25.336937,-56.14551 52.088326,-70.0814 17.29384,-9.009056 29.54003,-12.068829 48.48123,-12.113278 19.79914,-0.04646 36.81425,4.571002 54.12321,14.687648 11.28981,6.59861 28.35232,24.21564 35.09072,36.23114 21.92285,39.09148 16.7496,87.85084 -12.7132,119.82565 -23.28801,25.27354 -52.53319,36.63067 -86.4794,33.58358 z m 24.51686,-28.01774 c 26.02665,-4.90724 48.93509,-25.27127 57.36591,-50.99434 2.81637,-8.59295 3.20565,-11.39028 3.20565,-23.03534 0,-11.64506 -0.38928,-14.44239 -3.20565,-23.03534 -8.67021,-26.45348 -30.64548,-45.83027 -57.91819,-51.0696 -16.51855,-3.17337 -31.06242,-1.06258 -47.57702,6.90498 -17.86091,8.61709 -31.771707,24.95364 -38.410829,45.10886 -2.491971,7.56519 -2.910721,10.74332 -2.910721,22.0911 0,11.34778 0.41875,14.52592 2.910721,22.0911 4.103661,12.458 9.929965,21.84629 19.633399,31.63654 17.32478,17.47978 42.06292,24.98627 66.90673,20.30204 z"
   style="fill:#2ad4ff;stroke-width:1.10456" />


<path
   inkscape:connector-curvature="0"
   id="path144"
   d="m 138.87666,270.09139 c -21.91007,-4.9813 -40.949472,-20.26521 -50.945048,-40.8962 -10.099518,-20.84553 -10.074137,-43.16617 0.07311,-64.29394 19.292098,-40.16844 68.571598,-54.29074 106.723058,-30.58422 14.26843,8.8661 25.84564,23.86534 31.45683,40.75496 2.19836,6.61697 2.55983,9.88208 2.50685,22.64338 -0.0582,14.0111 -0.27558,15.47841 -3.60039,24.30021 -8.43964,22.39307 -26.16244,39.42437 -48.25179,46.36912 -10.02553,3.15195 -28.04289,3.96196 -37.96262,1.70669 z m 28.38055,-17.72336 c 11.18408,-2.63663 18.77156,-6.91524 27.33958,-15.41688 8.37822,-8.3133 12.5094,-15.44453 15.34551,-26.48932 7.68489,-29.92765 -11.78218,-61.21942 -42.60564,-68.48514 -31.66792,-7.46478 -63.44157,14.3949 -68.5339,47.15006 -5.984375,38.49301 30.49144,72.19099 68.45445,63.24128 z"
   style="fill:#00ccff;stroke-width:1.10456" />


<flowRoot
   style="font-style:normal;font-weight:normal;font-size:40px;font-family:'Times New Roman';fill:#000000;fill-opacity:1;stroke:none;-inkscape-font-specification:'Times New Roman, ';font-stretch:normal;font-variant:normal;"
   id="flowRoot146"
   xml:space="preserve"><flowRegion
     style="-inkscape-font-specification:'Times New Roman, ';font-family:'Times New Roman';font-weight:normal;font-style:normal;font-stretch:normal;font-variant:normal;"
     id="flowRegion148"><rect
       style="-inkscape-font-specification:'Times New Roman, ';font-family:'Times New Roman';font-weight:normal;font-style:normal;font-stretch:normal;font-variant:normal;"
       y="156.84683"
       x="133.65117"
       height="91.678078"
       width="49.704979"
       id="rect150" /></flowRegion><flowPara
     id="flowPara152" /></flowRoot>





<path
   inkscape:connector-curvature="0"
   id="path46"
   d="M 136.52302,268.9526 C 116.18261,263.39863 98.601422,248.69416 88.987615,229.19519 83.269083,217.59672 81.29526,209.38304 81.29526,197.18497 c 0,-19.28747 7.826771,-38.15264 21.51023,-51.84697 14.22629,-14.23757 28.63084,-20.56515 48.62902,-21.36156 14.85727,-0.59169 23.84669,1.25846 36.524,7.51714 15.71069,7.75623 28.26744,21.52486 36.02447,39.50129 3.64469,8.44635 3.66583,8.59726 3.66583,26.16822 0,17.57097 -0.0211,17.72188 -3.66583,26.16822 -9.23072,21.39161 -26.45144,37.70837 -46.57455,44.12975 -9.6318,3.07354 -32.09096,3.89288 -40.88541,1.49154 z m 32.53847,-16.5962 c 10.32485,-2.68928 18.66566,-7.79797 26.92153,-16.48925 11.36888,-11.96847 15.61268,-22.49333 15.63663,-38.77972 0.0463,-31.45777 -25.33279,-56.80893 -56.87147,-56.80893 -19.16186,0 -37.55496,10.15711 -48.072,26.5465 -10.613308,16.5394 -11.603905,39.5478 -2.44394,56.76473 3.84206,7.22147 16.8849,20.2562 24.12218,24.10719 11.66607,6.20756 27.71207,8.04424 40.70707,4.65948 z"
   style="fill:#55d400;stroke:none;stroke-width:1.10456" />
<path
   inkscape:connector-curvature="0"
   id="path48"
   d="M 140.73574,298.22112 C 123.2442,295.43973 106.3826,288.43762 93.341266,278.53965 74.807812,264.47332 60.699958,242.4555 55.25057,219.0923 c -1.348859,-5.78296 -1.666491,-11.74196 -1.34552,-25.24287 0.401558,-16.89062 0.595131,-18.17463 4.373197,-29.00836 6.873159,-19.709 18.961173,-36.73194 34.377466,-48.41206 9.008777,-6.82547 29.038237,-16.33489 39.449087,-18.729286 12.27367,-2.822836 34.10367,-2.595169 46.87725,0.488887 37.01952,8.937989 66.02096,38.155379 75.36916,75.930359 2.86822,11.59014 2.56571,36.84989 -0.58023,48.44889 -2.66538,9.82717 -9.29536,24.43205 -14.57392,32.10416 -13.4159,19.49936 -36.34892,35.57091 -59.04412,41.37836 -10.11732,2.58891 -29.92681,3.67984 -39.4172,2.17074 z m 32.66895,-27.57418 c 21.2115,-5.42499 39.56603,-20.43581 49.33468,-40.34719 5.83966,-11.90294 7.67083,-19.81331 7.67083,-33.13666 0,-13.23758 -1.81531,-21.09348 -7.65712,-33.13665 -7.91768,-16.32274 -19.21819,-27.46567 -36.01166,-35.50952 -25.89292,-12.40237 -59.11991,-7.90505 -80.94794,10.95641 -26.637442,23.01724 -34.220827,59.91429 -18.766296,91.30761 3.760681,7.6392 6.580209,11.39052 14.650146,19.49172 15.73289,15.79384 31.06404,22.27131 53.1703,22.46465 6.63786,0.0581 12.92662,-0.65035 18.55706,-2.09037 z"
   style="fill:#66ff00;stroke:none;stroke-width:1.10456" />
<path
   inkscape:connector-curvature="0"
   id="path60"
   d="m 128.41783,239.76637 c 0,-0.63911 1.49114,-1.68183 3.31366,-2.31717 1.82252,-0.63533 3.41741,-1.23078 3.5442,-1.32323 0.1268,-0.0925 0.49959,-16.23873 0.82842,-35.88063 l 0.59788,-35.71254 -4.14208,0.39597 c -3.45218,0.33001 -4.14208,0.0516 -4.14208,-1.67154 0,-1.95872 1.06071,-2.04744 20.15813,-1.68603 19.83758,0.37542 20.26351,0.43418 26.78546,3.69515 10.03371,5.01686 13.84679,12.26635 12.2062,23.2066 -1.82119,12.14455 -12.7953,19.76818 -31.43356,21.83665 l -11.14791,1.23719 v 13.03397 13.03396 h 5.52278 c 4.17276,0 5.52277,0.405 5.52277,1.65683 0,1.38437 -2.27047,1.65683 -13.80694,1.65683 -8.9234,0 -13.80693,-0.41101 -13.80693,-1.16201 z m 37.61062,-35.31675 c 16.82093,-8.5814 15.54508,-33.70378 -1.95853,-38.56457 -4.83985,-1.34404 -13.5196,-1.51463 -15.42486,-0.30316 -2.76883,1.76057 -3.65891,7.59297 -3.65891,23.97559 0,15.20976 0.20027,17.0258 1.93297,17.52839 3.5805,1.03857 14.99193,-0.53571 19.10933,-2.63625 z"
   style="fill:#55d400;stroke:none;stroke-width:1.10456" />
</g>



<g
   id="g81">
</g>



<g
   id="g83">
</g>



<g
   id="g85">
</g>



<g
   id="g87">
</g>



<g
   id="g89">
</g>



<g
   id="g91">
</g>



<g
   id="g93">
</g>



<g
   id="g95">
</g>



<g
   id="g97">
</g>



<g
   id="g99">
</g>



<g
   id="g101">
</g>



<g
   id="g103">
</g>



<g
   id="g105">
</g>



<g
   id="g107">
</g>



<g
   id="g109">
</g>



</svg>
